<svg width="112" height="186" viewBox="0 0 112 186" fill="none" xmlns="http://www.w3.org/2000/svg">
<path d="M63.2243 74.7268L63.7728 151.08L35.7867 149.783V149.267L35.1599 75.2895L63.2243 74.7268Z" fill="#05FF00"/>
<path d="M27.4348 1L28.7197 149.455L2.3946 148.236L1 3.29763L27.4348 1Z" fill="#05FF00"/>
<path d="M28.7197 149.455L35.7868 149.267" stroke="black" stroke-linecap="round" stroke-linejoin="round"/>
<path d="M2.3946 148.236L1 3.2981" stroke="black" stroke-linecap="round" stroke-linejoin="round"/>
<path d="M1 3.29763L27.4348 1" stroke="black" stroke-linecap="round" stroke-linejoin="round"/>
<path d="M27.4346 1L74.71 3.32889" stroke="black" stroke-linecap="round" stroke-linejoin="round"/>
<path d="M74.7104 3.32886L75.1962 74.8678" stroke="black" stroke-linecap="round" stroke-linejoin="round"/>
<path d="M63.7727 151.079L35.7866 149.782" stroke="black" stroke-linecap="round" stroke-linejoin="round"/>
<path d="M63.7727 151.08L111.346 149.767" stroke="black" stroke-linecap="round" stroke-linejoin="round"/>
<path d="M110.923 75.2903L111.346 149.768" stroke="black" stroke-linecap="round" stroke-linejoin="round"/>
<path d="M27.4346 1L28.7195 149.455" stroke="black" stroke-linecap="round" stroke-linejoin="round"/>
<path d="M35.7867 149.783V149.268L35.1599 75.2903" stroke="black" stroke-linecap="round" stroke-linejoin="round"/>
<path d="M35.1599 75.2895L63.2243 74.7268" stroke="black" stroke-linecap="round" stroke-linejoin="round"/>
<path d="M63.2244 74.7268L75.196 74.8675L110.923 75.2895" stroke="black" stroke-linecap="round" stroke-linejoin="round"/>
<path d="M63.2244 74.7268L63.7728 151.08" stroke="black" stroke-linecap="round" stroke-linejoin="round"/>
<path d="M28.7201 149.455L2.39502 148.236" stroke="black" stroke-linecap="round" stroke-linejoin="round"/>
<path d="M17.7614 181V166.455H19.4375V171.824H19.5795C19.7027 171.634 19.8731 171.393 20.0909 171.099C20.3134 170.801 20.6307 170.536 21.0426 170.304C21.4593 170.067 22.0227 169.949 22.733 169.949C23.6515 169.949 24.4612 170.179 25.1619 170.638C25.8627 171.097 26.4096 171.748 26.8026 172.591C27.1955 173.434 27.392 174.428 27.392 175.574C27.392 176.729 27.1955 177.731 26.8026 178.578C26.4096 179.421 25.8651 180.074 25.169 180.538C24.473 180.998 23.6705 181.227 22.7614 181.227C22.0606 181.227 21.4995 181.111 21.0781 180.879C20.6567 180.643 20.3324 180.375 20.1051 180.077C19.8778 179.774 19.7027 179.523 19.5795 179.324H19.3807V181H17.7614ZM19.4091 175.545C19.4091 176.369 19.5298 177.096 19.7713 177.726C20.0128 178.351 20.3655 178.841 20.8295 179.196C21.2936 179.546 21.8617 179.722 22.5341 179.722C23.2348 179.722 23.8196 179.537 24.2884 179.168C24.7618 178.794 25.117 178.292 25.3537 177.662C25.5952 177.027 25.7159 176.322 25.7159 175.545C25.7159 174.778 25.5975 174.087 25.3608 173.472C25.1288 172.851 24.776 172.361 24.3026 172.001C23.8338 171.637 23.2443 171.455 22.5341 171.455C21.8523 171.455 21.2794 171.627 20.8153 171.973C20.3513 172.314 20.0009 172.792 19.7642 173.408C19.5275 174.018 19.4091 174.731 19.4091 175.545ZM31.6321 166.455V181H29.956V166.455H31.6321ZM38.8214 181.227C37.9123 181.227 37.1097 180.998 36.4137 180.538C35.7177 180.074 35.1732 179.421 34.7802 178.578C34.3872 177.731 34.1907 176.729 34.1907 175.574C34.1907 174.428 34.3872 173.434 34.7802 172.591C35.1732 171.748 35.7201 171.097 36.4208 170.638C37.1216 170.179 37.9312 169.949 38.8498 169.949C39.56 169.949 40.1211 170.067 40.533 170.304C40.9497 170.536 41.2669 170.801 41.4847 171.099C41.7073 171.393 41.8801 171.634 42.0032 171.824H42.1452V166.455H43.8214V181H42.2021V179.324H42.0032C41.8801 179.523 41.7049 179.774 41.4776 180.077C41.2504 180.375 40.926 180.643 40.5046 180.879C40.0832 181.111 39.5221 181.227 38.8214 181.227ZM39.0487 179.722C39.721 179.722 40.2892 179.546 40.7532 179.196C41.2172 178.841 41.57 178.351 41.8114 177.726C42.0529 177.096 42.1737 176.369 42.1737 175.545C42.1737 174.731 42.0553 174.018 41.8185 173.408C41.5818 172.792 41.2314 172.314 40.7674 171.973C40.3034 171.627 39.7305 171.455 39.0487 171.455C38.3384 171.455 37.7466 171.637 37.2731 172.001C36.8043 172.361 36.4516 172.851 36.2148 173.472C35.9828 174.087 35.8668 174.778 35.8668 175.545C35.8668 176.322 35.9852 177.027 36.2219 177.662C36.4634 178.292 36.8185 178.794 37.2873 179.168C37.7608 179.537 38.3479 179.722 39.0487 179.722ZM47.1239 181V170.091H48.7433V171.739H48.8569C49.0558 171.199 49.4156 170.761 49.9364 170.425C50.4573 170.089 51.0444 169.92 51.6978 169.92C51.8209 169.92 51.9748 169.923 52.1594 169.928C52.3441 169.932 52.4838 169.939 52.5785 169.949V171.653C52.5217 171.639 52.3915 171.618 52.1879 171.589C51.989 171.556 51.7783 171.54 51.5558 171.54C51.0255 171.54 50.552 171.651 50.1353 171.874C49.7234 172.091 49.3967 172.394 49.1552 172.783C48.9184 173.166 48.8001 173.604 48.8001 174.097V181H47.1239ZM62.2926 172.534L60.7869 172.96C60.6922 172.709 60.5526 172.465 60.3679 172.229C60.188 171.987 59.9418 171.788 59.6293 171.632C59.3168 171.476 58.9167 171.398 58.429 171.398C57.7614 171.398 57.205 171.552 56.7599 171.859C56.3196 172.162 56.0994 172.548 56.0994 173.017C56.0994 173.434 56.2509 173.763 56.554 174.004C56.857 174.246 57.3305 174.447 57.9744 174.608L59.5938 175.006C60.5691 175.242 61.2959 175.605 61.7741 176.092C62.2524 176.575 62.4915 177.198 62.4915 177.96C62.4915 178.585 62.3116 179.144 61.9517 179.636C61.5966 180.129 61.0994 180.517 60.4602 180.801C59.821 181.085 59.0777 181.227 58.2301 181.227C57.1174 181.227 56.1965 180.986 55.4673 180.503C54.7382 180.02 54.2765 179.314 54.0824 178.386L55.6733 177.989C55.8248 178.576 56.1113 179.016 56.5327 179.31C56.9588 179.603 57.5152 179.75 58.2017 179.75C58.983 179.75 59.6032 179.584 60.0625 179.253C60.5265 178.917 60.7585 178.514 60.7585 178.045C60.7585 177.667 60.6259 177.349 60.3608 177.094C60.0956 176.833 59.6884 176.639 59.1392 176.511L57.321 176.085C56.322 175.848 55.5881 175.482 55.1193 174.984C54.6553 174.482 54.4233 173.855 54.4233 173.102C54.4233 172.487 54.5961 171.942 54.9418 171.469C55.2921 170.995 55.768 170.624 56.3693 170.354C56.9754 170.084 57.6619 169.949 58.429 169.949C59.5085 169.949 60.3561 170.186 60.9716 170.659C61.5919 171.133 62.0322 171.758 62.2926 172.534ZM66.2362 181.114C65.8858 181.114 65.5851 180.988 65.3342 180.737C65.0832 180.486 64.9577 180.186 64.9577 179.835C64.9577 179.485 65.0832 179.184 65.3342 178.933C65.5851 178.682 65.8858 178.557 66.2362 178.557C66.5865 178.557 66.8872 178.682 67.1381 178.933C67.3891 179.184 67.5146 179.485 67.5146 179.835C67.5146 180.067 67.4554 180.28 67.337 180.474C67.2234 180.669 67.0695 180.825 66.8754 180.943C66.686 181.057 66.4729 181.114 66.2362 181.114ZM73.7326 181.256C73.0413 181.256 72.4139 181.125 71.8505 180.865C71.2871 180.6 70.8396 180.219 70.5082 179.722C70.1767 179.22 70.011 178.614 70.011 177.903C70.011 177.278 70.1341 176.772 70.3803 176.384C70.6265 175.991 70.9556 175.683 71.3675 175.46C71.7795 175.238 72.234 175.072 72.7312 174.963C73.2331 174.849 73.7373 174.759 74.244 174.693C74.9068 174.608 75.4442 174.544 75.8562 174.501C76.2728 174.454 76.5759 174.376 76.7653 174.267C76.9594 174.158 77.0565 173.969 77.0565 173.699V173.642C77.0565 172.941 76.8647 172.397 76.4812 172.009C76.1024 171.62 75.5271 171.426 74.7553 171.426C73.9551 171.426 73.3278 171.601 72.8732 171.952C72.4187 172.302 72.0991 172.676 71.9144 173.074L70.3235 172.506C70.6076 171.843 70.9864 171.327 71.4599 170.957C71.9381 170.583 72.4589 170.323 73.0224 170.176C73.5906 170.025 74.1493 169.949 74.6985 169.949C75.0489 169.949 75.4513 169.991 75.9059 170.077C76.3652 170.157 76.8079 170.325 77.234 170.581C77.6649 170.837 78.0224 171.223 78.3065 171.739C78.5906 172.255 78.7326 172.946 78.7326 173.812V181H77.0565V179.523H76.9712C76.8576 179.759 76.6682 180.013 76.4031 180.283C76.1379 180.553 75.7852 180.782 75.3448 180.972C74.9045 181.161 74.3671 181.256 73.7326 181.256ZM73.9883 179.75C74.6512 179.75 75.2099 179.62 75.6644 179.359C76.1237 179.099 76.4693 178.763 76.7013 178.351C76.9381 177.939 77.0565 177.506 77.0565 177.051V175.517C76.9854 175.602 76.8292 175.68 76.5877 175.751C76.351 175.818 76.0763 175.877 75.7638 175.929C75.4561 175.976 75.1554 176.019 74.8619 176.057C74.573 176.09 74.3387 176.118 74.1587 176.142C73.7231 176.199 73.3159 176.291 72.9371 176.419C72.5631 176.542 72.2601 176.729 72.0281 176.98C71.8008 177.226 71.6871 177.562 71.6871 177.989C71.6871 178.571 71.9026 179.011 72.3335 179.31C72.7691 179.603 73.3207 179.75 73.9883 179.75ZM81.7919 181V170.091H83.468V181H81.7919ZM82.6442 168.273C82.3175 168.273 82.0357 168.161 81.799 167.939C81.567 167.716 81.451 167.449 81.451 167.136C81.451 166.824 81.567 166.556 81.799 166.334C82.0357 166.111 82.3175 166 82.6442 166C82.9709 166 83.2502 166.111 83.4822 166.334C83.719 166.556 83.8374 166.824 83.8374 167.136C83.8374 167.449 83.719 167.716 83.4822 167.939C83.2502 168.161 82.9709 168.273 82.6442 168.273Z" fill="black"/>
</svg>
