<svg width="112" height="152" viewBox="0 0 112 152" fill="none" xmlns="http://www.w3.org/2000/svg">
<path d="M63.2243 74.7268L63.7728 151.08L35.7867 149.783V149.267L35.1599 75.2895L63.2243 74.7268Z" fill="#05FF00"/>
<path d="M27.4348 1L28.7197 149.455L2.3946 148.236L1 3.29763L27.4348 1Z" fill="#05FF00"/>
<path d="M28.7197 149.455L35.7868 149.267" stroke="black" stroke-linecap="round" stroke-linejoin="round"/>
<path d="M2.3946 148.236L1 3.2981" stroke="black" stroke-linecap="round" stroke-linejoin="round"/>
<path d="M1 3.29763L27.4348 1" stroke="black" stroke-linecap="round" stroke-linejoin="round"/>
<path d="M27.4346 1L74.71 3.32889" stroke="black" stroke-linecap="round" stroke-linejoin="round"/>
<path d="M74.7104 3.32886L75.1962 74.8678" stroke="black" stroke-linecap="round" stroke-linejoin="round"/>
<path d="M63.7727 151.079L35.7866 149.782" stroke="black" stroke-linecap="round" stroke-linejoin="round"/>
<path d="M63.7727 151.08L111.346 149.767" stroke="black" stroke-linecap="round" stroke-linejoin="round"/>
<path d="M110.923 75.2903L111.346 149.768" stroke="black" stroke-linecap="round" stroke-linejoin="round"/>
<path d="M27.4346 1L28.7195 149.455" stroke="black" stroke-linecap="round" stroke-linejoin="round"/>
<path d="M35.7867 149.783V149.268L35.1599 75.2903" stroke="black" stroke-linecap="round" stroke-linejoin="round"/>
<path d="M35.1599 75.2895L63.2243 74.7268" stroke="black" stroke-linecap="round" stroke-linejoin="round"/>
<path d="M63.2244 74.7268L75.196 74.8675L110.923 75.2895" stroke="black" stroke-linecap="round" stroke-linejoin="round"/>
<path d="M63.2244 74.7268L63.7728 151.08" stroke="black" stroke-linecap="round" stroke-linejoin="round"/>
<path d="M28.7201 149.455L2.39502 148.236" stroke="black" stroke-linecap="round" stroke-linejoin="round"/>
</svg>
